<?xml version="1.0" standalone="no"?>
 <!DOCTYPE svg PUBLIC "-//W3C//DTD SVG 1.1//EN" 
 "http://www.w3.org/Graphics/SVG/1.1/DTD/svg11.dtd"> 
<svg
  xmlns:svg="http://www.w3.org/2000/svg"
  xmlns="http://www.w3.org/2000/svg"
  xmlns:xlink="http://www.w3.org/1999/xlink"
  version="1.1"
  width="33.553400mm" height="48.006000mm" viewBox="0.000000 0.000000 33.553400 48.006000">
<title>SVG Image created as controle_grel-F_Cu.svg date 2025/07/30 14:43:30 </title>
  <desc>Image generated by PCBNEW </desc>
<g style="fill:#000000; fill-opacity:1.000000;stroke:#000000; stroke-opacity:1.000000;
stroke-linecap:round; stroke-linejoin:round;"
 transform="translate(0 0) scale(1 1)">
<path style="fill:#000000; fill-opacity:1.000000; stroke:none;fill-rule:evenodd;"
d="M 22.481047,46.620250
20.681047,46.620250
20.681047,44.820250
22.481047,44.820250
Z" /> 
</g>
<g style="fill:#000000; fill-opacity:1.000000; stroke:none;">
<circle cx="21.581047" cy="43.180250" r="0.900000" /> 
<path style="fill:#000000; fill-opacity:1.000000; stroke:none;fill-rule:evenodd;"
d="M 27.531047,46.595250
25.731047,46.595250
25.731047,44.795250
27.531047,44.795250
Z" /> 
</g>
<g style="fill:#000000; fill-opacity:1.000000; stroke:none;">
<circle cx="26.631047" cy="43.155250" r="0.900000" /> 
<path style="fill:#000000; fill-opacity:1.000000; stroke:none;fill-rule:evenodd;"
d="M 27.231047,31.455250
27.124046,31.439660
27.013143,31.385443
26.925854,31.298154
26.871637,31.187251
26.856047,31.080250
26.856047,29.830250
26.871637,29.723249
26.925854,29.612346
27.013143,29.525057
27.124046,29.470840
27.231047,29.455250
27.981047,29.455250
28.088048,29.470840
28.198951,29.525057
28.286240,29.612346
28.340457,29.723249
28.356047,29.830250
28.356047,31.080250
28.340457,31.187251
28.286240,31.298154
28.198951,31.385443
28.088048,31.439660
27.981047,31.455250
Z" /> 
<path style="fill:#000000; fill-opacity:1.000000; stroke:none;fill-rule:evenodd;"
d="M 29.531047,31.455250
29.424046,31.439660
29.313143,31.385443
29.225854,31.298154
29.171637,31.187251
29.156047,31.080250
29.156047,29.830250
29.171637,29.723249
29.225854,29.612346
29.313143,29.525057
29.424046,29.470840
29.531047,29.455250
30.281047,29.455250
30.388048,29.470840
30.498951,29.525057
30.586240,29.612346
30.640457,29.723249
30.656047,29.830250
30.656047,31.080250
30.640457,31.187251
30.586240,31.298154
30.498951,31.385443
30.388048,31.439660
30.281047,31.455250
Z" /> 
<path style="fill:#000000; fill-opacity:1.000000; stroke:none;fill-rule:evenodd;"
d="M 28.506047,25.155250
28.399764,25.143823
28.266423,25.094089
28.152494,25.008803
28.067208,24.894874
28.017474,24.761533
28.006047,24.655250
28.006047,23.655250
28.017474,23.548967
28.067208,23.415626
28.152494,23.301697
28.266423,23.216411
28.399764,23.166677
28.506047,23.155250
31.306047,23.155250
31.412330,23.166677
31.545671,23.216411
31.659600,23.301697
31.744886,23.415626
31.794620,23.548967
31.806047,23.655250
31.806047,24.655250
31.794620,24.761533
31.744886,24.894874
31.659600,25.008803
31.545671,25.094089
31.412330,25.143823
31.306047,25.155250
Z" /> 
<path style="fill:#000000; fill-opacity:1.000000; stroke:none;fill-rule:evenodd;"
d="M 31.831047,31.455250
31.724046,31.439660
31.613143,31.385443
31.525854,31.298154
31.471637,31.187251
31.456047,31.080250
31.456047,29.830250
31.471637,29.723249
31.525854,29.612346
31.613143,29.525057
31.724046,29.470840
31.831047,29.455250
32.581047,29.455250
32.688048,29.470840
32.798951,29.525057
32.886240,29.612346
32.940457,29.723249
32.956047,29.830250
32.956047,31.080250
32.940457,31.187251
32.886240,31.298154
32.798951,31.385443
32.688048,31.439660
32.581047,31.455250
Z" /> 
<path style="fill:#000000; fill-opacity:1.000000; stroke:none;fill-rule:evenodd;"
d="M 21.931047,36.367750
22.026718,36.386780
22.107824,36.440973
22.162017,36.522079
22.181047,36.617750
22.181047,37.242750
22.162017,37.338421
22.107824,37.419527
22.026718,37.473720
21.931047,37.492750
20.681047,37.492750
20.585376,37.473720
20.504270,37.419527
20.450077,37.338421
20.431047,37.242750
20.431047,36.617750
20.450077,36.522079
20.504270,36.440973
20.585376,36.386780
20.681047,36.367750
Z" /> 
<path style="fill:#000000; fill-opacity:1.000000; stroke:none;fill-rule:evenodd;"
d="M 21.931047,39.292750
22.026718,39.311780
22.107824,39.365973
22.162017,39.447079
22.181047,39.542750
22.181047,40.167750
22.162017,40.263421
22.107824,40.344527
22.026718,40.398720
21.931047,40.417750
20.681047,40.417750
20.585376,40.398720
20.504270,40.344527
20.450077,40.263421
20.431047,40.167750
20.431047,39.542750
20.450077,39.447079
20.504270,39.365973
20.585376,39.311780
20.681047,39.292750
Z" /> 
<path style="fill:#000000; fill-opacity:1.000000; stroke:none;fill-rule:evenodd;"
d="M 19.006047,35.155250
19.101718,35.174280
19.182824,35.228473
19.237017,35.309579
19.256047,35.405250
19.256047,36.030250
19.237017,36.125921
19.182824,36.207027
19.101718,36.261220
19.006047,36.280250
17.756047,36.280250
17.660376,36.261220
17.579270,36.207027
17.525077,36.125921
17.506047,36.030250
17.506047,35.405250
17.525077,35.309579
17.579270,35.228473
17.660376,35.174280
17.756047,35.155250
Z" /> 
<path style="fill:#000000; fill-opacity:1.000000; stroke:none;fill-rule:evenodd;"
d="M 19.006047,38.080250
19.101718,38.099280
19.182824,38.153473
19.237017,38.234579
19.256047,38.330250
19.256047,38.955250
19.237017,39.050921
19.182824,39.132027
19.101718,39.186220
19.006047,39.205250
17.756047,39.205250
17.660376,39.186220
17.579270,39.132027
17.525077,39.050921
17.506047,38.955250
17.506047,38.330250
17.525077,38.234579
17.579270,38.153473
17.660376,38.099280
17.756047,38.080250
Z" /> 
<path style="fill:#000000; fill-opacity:1.000000; stroke:none;fill-rule:evenodd;"
d="M 28.551047,36.367750
28.646718,36.386780
28.727824,36.440973
28.782017,36.522079
28.801047,36.617750
28.801047,37.242750
28.782017,37.338421
28.727824,37.419527
28.646718,37.473720
28.551047,37.492750
27.301047,37.492750
27.205376,37.473720
27.124270,37.419527
27.070077,37.338421
27.051047,37.242750
27.051047,36.617750
27.070077,36.522079
27.124270,36.440973
27.205376,36.386780
27.301047,36.367750
Z" /> 
<path style="fill:#000000; fill-opacity:1.000000; stroke:none;fill-rule:evenodd;"
d="M 28.551047,39.292750
28.646718,39.311780
28.727824,39.365973
28.782017,39.447079
28.801047,39.542750
28.801047,40.167750
28.782017,40.263421
28.727824,40.344527
28.646718,40.398720
28.551047,40.417750
27.301047,40.417750
27.205376,40.398720
27.124270,40.344527
27.070077,40.263421
27.051047,40.167750
27.051047,39.542750
27.070077,39.447079
27.124270,39.365973
27.205376,39.311780
27.301047,39.292750
Z" /> 
<path style="fill:#000000; fill-opacity:1.000000; stroke:none;fill-rule:evenodd;"
d="M 29.079047,19.944250
30.779047,19.944250
30.779047,21.644250
29.079047,21.644250
Z" /> 
</g>
<g style="fill:#000000; fill-opacity:1.000000; stroke:none;">
<circle cx="27.389047" cy="20.794250" r="0.850000" /> 
<path style="fill:#000000; fill-opacity:1.000000; stroke:none;fill-rule:evenodd;"
d="M 28.825047,13.594250
30.525047,13.594250
30.525047,15.294250
28.825047,15.294250
Z" /> 
</g>
<g style="fill:#000000; fill-opacity:1.000000; stroke:none;">
<circle cx="27.135047" cy="14.444250" r="0.850000" /> 
<path style="fill:#000000; fill-opacity:1.000000; stroke:none;fill-rule:evenodd;"
d="M 28.952047,8.768250
30.652047,8.768250
30.652047,10.468250
28.952047,10.468250
Z" /> 
</g>
<g style="fill:#000000; fill-opacity:1.000000; stroke:none;">
<circle cx="27.262047" cy="9.618250" r="0.850000" /> 
<path style="fill:#000000; fill-opacity:1.000000; stroke:none;fill-rule:evenodd;"
d="M 17.796047,26.760250
16.796047,26.760250
16.796047,23.760250
17.796047,23.760250
Z" /> 
<path style="fill:#000000; fill-opacity:1.000000; stroke:none;fill-rule:evenodd;"
d="M 17.796047,31.800250
16.796047,31.800250
16.796047,28.800250
17.796047,28.800250
Z" /> 
<path style="fill:#000000; fill-opacity:1.000000; stroke:none;fill-rule:evenodd;"
d="M 20.336047,26.760250
19.336047,26.760250
19.336047,23.760250
20.336047,23.760250
Z" /> 
<path style="fill:#000000; fill-opacity:1.000000; stroke:none;fill-rule:evenodd;"
d="M 20.336047,31.800250
19.336047,31.800250
19.336047,28.800250
20.336047,28.800250
Z" /> 
<path style="fill:#000000; fill-opacity:1.000000; stroke:none;fill-rule:evenodd;"
d="M 22.876047,26.760250
21.876047,26.760250
21.876047,23.760250
22.876047,23.760250
Z" /> 
<path style="fill:#000000; fill-opacity:1.000000; stroke:none;fill-rule:evenodd;"
d="M 22.876047,31.800250
21.876047,31.800250
21.876047,28.800250
22.876047,28.800250
Z" /> 
<path style="fill:#000000; fill-opacity:1.000000; stroke:none;fill-rule:evenodd;"
d="M 25.416047,26.760250
24.416047,26.760250
24.416047,23.760250
25.416047,23.760250
Z" /> 
<path style="fill:#000000; fill-opacity:1.000000; stroke:none;fill-rule:evenodd;"
d="M 25.416047,31.800250
24.416047,31.800250
24.416047,28.800250
25.416047,28.800250
Z" /> 
<path style="fill:#000000; fill-opacity:1.000000; stroke:none;fill-rule:evenodd;"
d="M 22.282997,18.350083
22.201891,18.404277
22.106220,18.423307
22.010549,18.404277
21.929443,18.350083
21.487502,17.908142
21.433308,17.827036
21.414278,17.731365
21.433308,17.635694
21.487502,17.554588
22.371385,16.670705
22.452491,16.616511
22.548162,16.597481
22.643833,16.616511
22.724939,16.670705
23.166880,17.112646
23.221074,17.193752
23.240104,17.289423
23.221074,17.385094
23.166880,17.466200
Z" /> 
<path style="fill:#000000; fill-opacity:1.000000; stroke:none;fill-rule:evenodd;"
d="M 20.214709,16.281795
20.133603,16.335989
20.037932,16.355019
19.942261,16.335989
19.861155,16.281795
19.419214,15.839854
19.365020,15.758748
19.345990,15.663077
19.365020,15.567406
19.419214,15.486300
20.303097,14.602417
20.384203,14.548223
20.479874,14.529193
20.575545,14.548223
20.656651,14.602417
21.098592,15.044358
21.152786,15.125464
21.171816,15.221135
21.152786,15.316806
21.098592,15.397912
Z" /> 
<path style="fill:#000000; fill-opacity:1.000000; stroke:none;fill-rule:evenodd;"
d="M 18.345997,14.540083
18.264891,14.594277
18.169220,14.613307
18.073549,14.594277
17.992443,14.540083
17.550502,14.098142
17.496308,14.017036
17.477278,13.921365
17.496308,13.825694
17.550502,13.744588
18.434385,12.860705
18.515491,12.806511
18.611162,12.787481
18.706833,12.806511
18.787939,12.860705
19.229880,13.302646
19.284074,13.383752
19.303104,13.479423
19.284074,13.575094
19.229880,13.656200
Z" /> 
<path style="fill:#000000; fill-opacity:1.000000; stroke:none;fill-rule:evenodd;"
d="M 16.277709,12.471795
16.196603,12.525989
16.100932,12.545019
16.005261,12.525989
15.924155,12.471795
15.482214,12.029854
15.428020,11.948748
15.408990,11.853077
15.428020,11.757406
15.482214,11.676300
16.366097,10.792417
16.447203,10.738223
16.542874,10.719193
16.638545,10.738223
16.719651,10.792417
17.161592,11.234358
17.215786,11.315464
17.234816,11.411135
17.215786,11.506806
17.161592,11.587912
Z" /> 
<path style="fill:#000000; fill-opacity:1.000000; stroke:none;fill-rule:evenodd;"
d="M 16.081047,41.205250
16.081047,42.905250
14.381047,42.905250
14.381047,41.205250
Z" /> 
</g>
<g style="fill:#000000; fill-opacity:1.000000; stroke:none;">
<circle cx="15.231047" cy="39.515250" r="0.850000" /> 
</g>
<g style="fill:#000000; fill-opacity:1.000000; stroke:none;">
<circle cx="15.231047" cy="36.975250" r="0.850000" /> 
<path style="fill:#000000; fill-opacity:1.000000; stroke:none;fill-rule:evenodd;"
d="M 26.219997,22.414083
26.138891,22.468277
26.043220,22.487307
25.947549,22.468277
25.866443,22.414083
25.424502,21.972142
25.370308,21.891036
25.351278,21.795365
25.370308,21.699694
25.424502,21.618588
26.308385,20.734705
26.389491,20.680511
26.485162,20.661481
26.580833,20.680511
26.661939,20.734705
27.103880,21.176646
27.158074,21.257752
27.177104,21.353423
27.158074,21.449094
27.103880,21.530200
Z" /> 
<path style="fill:#000000; fill-opacity:1.000000; stroke:none;fill-rule:evenodd;"
d="M 24.151709,20.345795
24.070603,20.399989
23.974932,20.419019
23.879261,20.399989
23.798155,20.345795
23.356214,19.903854
23.302020,19.822748
23.282990,19.727077
23.302020,19.631406
23.356214,19.550300
24.240097,18.666417
24.321203,18.612223
24.416874,18.593193
24.512545,18.612223
24.593651,18.666417
25.035592,19.108358
25.089786,19.189464
25.108816,19.285135
25.089786,19.380806
25.035592,19.461912
Z" /> 
<path style="fill:#000000; fill-opacity:1.000000; stroke:none;fill-rule:evenodd;"
d="M 25.241047,36.367750
25.336718,36.386780
25.417824,36.440973
25.472017,36.522079
25.491047,36.617750
25.491047,37.242750
25.472017,37.338421
25.417824,37.419527
25.336718,37.473720
25.241047,37.492750
23.991047,37.492750
23.895376,37.473720
23.814270,37.419527
23.760077,37.338421
23.741047,37.242750
23.741047,36.617750
23.760077,36.522079
23.814270,36.440973
23.895376,36.386780
23.991047,36.367750
Z" /> 
<path style="fill:#000000; fill-opacity:1.000000; stroke:none;fill-rule:evenodd;"
d="M 25.241047,39.292750
25.336718,39.311780
25.417824,39.365973
25.472017,39.447079
25.491047,39.542750
25.491047,40.167750
25.472017,40.263421
25.417824,40.344527
25.336718,40.398720
25.241047,40.417750
23.991047,40.417750
23.895376,40.398720
23.814270,40.344527
23.760077,40.263421
23.741047,40.167750
23.741047,39.542750
23.760077,39.447079
23.814270,39.365973
23.895376,39.311780
23.991047,39.292750
Z" /> 
<path style="fill:#000000; fill-opacity:1.000000; stroke:none;fill-rule:evenodd;"
d="M 31.931047,36.367750
32.026718,36.386780
32.107824,36.440973
32.162017,36.522079
32.181047,36.617750
32.181047,37.242750
32.162017,37.338421
32.107824,37.419527
32.026718,37.473720
31.931047,37.492750
30.681047,37.492750
30.585376,37.473720
30.504270,37.419527
30.450077,37.338421
30.431047,37.242750
30.431047,36.617750
30.450077,36.522079
30.504270,36.440973
30.585376,36.386780
30.681047,36.367750
Z" /> 
<path style="fill:#000000; fill-opacity:1.000000; stroke:none;fill-rule:evenodd;"
d="M 31.931047,39.292750
32.026718,39.311780
32.107824,39.365973
32.162017,39.447079
32.181047,39.542750
32.181047,40.167750
32.162017,40.263421
32.107824,40.344527
32.026718,40.398720
31.931047,40.417750
30.681047,40.417750
30.585376,40.398720
30.504270,40.344527
30.450077,40.263421
30.431047,40.167750
30.431047,39.542750
30.450077,39.447079
30.504270,39.365973
30.585376,39.311780
30.681047,39.292750
Z" /> 
</g>
<g style="fill:#000000; fill-opacity:1.000000; stroke:none;">
<circle cx="16.321903" cy="11.632106" r="0.400000" /> 
</g>
<g style="fill:#000000; fill-opacity:1.000000; stroke:none;">
<circle cx="24.195903" cy="19.506106" r="0.400000" /> 
</g>
<g style="fill:#000000; fill-opacity:1.000000; stroke:none;">
<circle cx="17.463547" cy="25.092750" r="0.400000" /> 
</g>
<g style="fill:#000000; fill-opacity:1.000000; stroke:none;">
<circle cx="27.606047" cy="30.455250" r="0.400000" /> 
</g>
<g style="fill:#000000; fill-opacity:1.000000; stroke:none;">
<circle cx="20.258903" cy="15.442106" r="0.400000" /> 
</g>
<g style="fill:none; 
stroke:#000000; stroke-width:1.000000; stroke-opacity:1; 
stroke-linecap:round; stroke-linejoin:round;">
<path d="M27.262047 9.618250
L23.325047 9.618250
" />
<path d="M23.325047 9.618250
L15.705047 17.238250
" />
<path d="M15.705047 17.238250
L15.705047 21.120750
" />
<path d="M15.705047 21.120750
L17.143547 22.559250
" />
<path d="M17.143547 22.559250
L18.402731 22.559250
" />
<path d="M18.402731 22.559250
L19.844547 24.001066
" />
<path d="M16.056047 42.055250
L17.641047 43.640250
" />
<path d="M15.231047 42.055250
L16.056047 42.055250
" />
<path d="M17.641047 43.640250
L17.641047 44.490250
" />
<path d="M21.581047 45.720250
L26.606047 45.720250
" />
<path d="M26.606047 45.720250
L26.631047 45.695250
" />
<path d="M18.871047 45.720250
L21.581047 45.720250
" />
<path d="M17.641047 44.490250
L18.871047 45.720250
" />
<path d="M15.095047 27.461250
L17.296047 25.260250
" />
<path d="M15.231047 36.975250
L15.095047 36.839250
" />
<path d="M17.463547 25.092750
L17.296047 25.260250
" />
<path d="M15.095047 36.839250
L15.095047 27.461250
" />
<path d="M26.656047 39.855250
L31.306047 39.855250
" />
<path d="M26.631047 43.155250
L26.631047 40.980250
" />
<path d="M25.506047 39.855250
L24.616047 39.855250
" />
<path d="M26.631047 43.155250
L21.613731 43.155250
" />
<path d="M26.801047 40.980250
L27.926047 39.855250
" />
<path d="M21.306047 39.855250
L26.656047 39.855250
" />
<path d="M26.631047 40.980250
L25.506047 39.855250
" />
<path d="M26.631047 40.980250
L26.801047 40.980250
" />
<path d="M21.613731 43.155250
L21.609889 43.151408
" />
<path d="M21.306047 39.855250
L24.616047 39.855250
" />
<path d="M26.631047 39.880250
L26.656047 39.855250
" />
<path d="M26.631047 40.980250
L26.631047 39.880250
" />
<path d="M31.306047 36.930250
L32.206047 36.030250
" />
<path d="M21.306047 36.930250
L31.306047 36.930250
" />
<path d="M32.206047 36.030250
L32.206047 30.455250
" />
<path d="M29.802047 14.317250
L29.675047 14.444250
" />
<path d="M29.802047 9.618250
L29.802047 14.317250
" />
<path d="M24.916047 30.300250
L24.916047 33.688250
" />
<path d="M29.906047 24.155250
L29.906047 13.329250
" />
<path d="M29.906047 30.455250
L29.906047 24.155250
" />
<path d="M29.906047 32.755250
L29.906047 30.455250
" />
<path d="M28.151047 34.510250
L29.906047 32.755250
" />
<path d="M24.916047 33.688250
L25.738047 34.510250
" />
<path d="M25.738047 34.510250
L28.151047 34.510250
" />
<path d="M19.836047 30.300250
L24.916047 30.300250
" />
<path d="M19.844547 24.001066
L19.844547 25.251750
" />
<path d="M19.844547 24.001066
L19.844547 25.260250
" />
<path d="M19.844547 25.251750
L19.836047 25.260250
" />
<path d="M22.077093 24.961296
L22.376047 25.260250
" />
<path d="M22.327191 17.510394
L22.077093 17.760492
" />
<path d="M25.393335 14.444250
L27.135047 14.444250
" />
<path d="M22.327191 17.510394
L25.393335 14.444250
" />
<path d="M22.077093 17.760492
L22.077093 24.961296
" />
<path d="M24.916047 23.267250
L24.916047 25.260250
" />
<path d="M27.389047 20.794250
L24.916047 23.267250
" />
<path d="M18.381047 35.717750
L17.296047 34.632750
" />
<path d="M17.296047 34.632750
L17.296047 30.300250
" />
<path d="M17.508547 39.515250
L18.381047 38.642750
" />
<path d="M15.231047 39.515250
L17.508547 39.515250
" />
<path style="fill:none; 
stroke:#000000; stroke-width:0.100000; stroke-opacity:1; 
stroke-linecap:round; stroke-linejoin:round;fill:none"
d="M 13.506047,7.780250
33.506047,7.780250
33.506047,47.780250
13.506047,47.780250
Z" /> 
</g>
<g style="fill:#FFFFFF; fill-opacity:1.000000; stroke:none;">
<circle cx="16.321903" cy="11.632106" r="0.200000" /> 
</g>
<g style="fill:#FFFFFF; fill-opacity:1.000000; stroke:none;">
<circle cx="24.195903" cy="19.506106" r="0.200000" /> 
</g>
<g style="fill:#FFFFFF; fill-opacity:1.000000; stroke:none;">
<circle cx="17.463547" cy="25.092750" r="0.200000" /> 
</g>
<g style="fill:#FFFFFF; fill-opacity:1.000000; stroke:none;">
<circle cx="27.606047" cy="30.455250" r="0.200000" /> 
</g>
<g style="fill:#FFFFFF; fill-opacity:1.000000; stroke:none;">
<circle cx="20.258903" cy="15.442106" r="0.200000" /> 
</g>
<g style="fill:#FFFFFF; fill-opacity:1.000000; stroke:none;">
<circle cx="21.581047" cy="45.720250" r="0.450000" /> 
</g>
<g style="fill:#FFFFFF; fill-opacity:1.000000; stroke:none;">
<circle cx="21.581047" cy="43.180250" r="0.450000" /> 
</g>
<g style="fill:#FFFFFF; fill-opacity:1.000000; stroke:none;">
<circle cx="26.631047" cy="45.695250" r="0.450000" /> 
</g>
<g style="fill:#FFFFFF; fill-opacity:1.000000; stroke:none;">
<circle cx="26.631047" cy="43.155250" r="0.450000" /> 
</g>
<g style="fill:#FFFFFF; fill-opacity:1.000000; stroke:none;">
<circle cx="29.929047" cy="20.794250" r="0.500000" /> 
</g>
<g style="fill:#FFFFFF; fill-opacity:1.000000; stroke:none;">
<circle cx="27.389047" cy="20.794250" r="0.500000" /> 
</g>
<g style="fill:#FFFFFF; fill-opacity:1.000000; stroke:none;">
<circle cx="29.675047" cy="14.444250" r="0.500000" /> 
</g>
<g style="fill:#FFFFFF; fill-opacity:1.000000; stroke:none;">
<circle cx="27.135047" cy="14.444250" r="0.500000" /> 
</g>
<g style="fill:#FFFFFF; fill-opacity:1.000000; stroke:none;">
<circle cx="29.802047" cy="9.618250" r="0.500000" /> 
</g>
<g style="fill:#FFFFFF; fill-opacity:1.000000; stroke:none;">
<circle cx="27.262047" cy="9.618250" r="0.500000" /> 
</g>
<g style="fill:#FFFFFF; fill-opacity:1.000000; stroke:none;">
<circle cx="15.231047" cy="42.055250" r="0.500000" /> 
</g>
<g style="fill:#FFFFFF; fill-opacity:1.000000; stroke:none;">
<circle cx="15.231047" cy="39.515250" r="0.500000" /> 
</g>
<g style="fill:#FFFFFF; fill-opacity:1.000000; stroke:none;">
<circle cx="15.231047" cy="36.975250" r="0.500000" /> 
</g> 
</svg>
